/* XPM */
static char * filesave_xpm[] = {
"22 22 176 2",
"  	c None",
". 	c #4E9A06",
"+ 	c #4F9C08",
"@ 	c #E3F7CF",
"# 	c #ECFADE",
"$ 	c #E1F7CC",
"% 	c #D0F3AE",
"& 	c #559F11",
"* 	c #E0F7CA",
"= 	c #B5ED7F",
"- 	c #8AE234",
"; 	c #CCF2A7",
"> 	c #888A85",
", 	c #828B75",
"' 	c #F5F5F4",
") 	c #F6F6F5",
"! 	c #FDFDFD",
"~ 	c #E2E9D7",
"{ 	c #E0E0DF",
"] 	c #F3F3F2",
"^ 	c #DCDCDA",
"/ 	c #F1F1EF",
"( 	c #569F11",
"_ 	c #E3F8CF",
": 	c #D0F3AD",
"< 	c #CDF3A9",
"[ 	c #59A016",
"} 	c #EDEDEB",
"| 	c #D4D4D3",
"1 	c #ECECEB",
"2 	c #F1F1F0",
"3 	c #9DC476",
"4 	c #5EA519",
"5 	c #D4F2B6",
"6 	c #DEF7C6",
"7 	c #D3F4B3",
"8 	c #CFF3AB",
"9 	c #ACEB70",
"0 	c #CEF0AC",
"a 	c #91B869",
"b 	c #E6E7E4",
"c 	c #E1E2E0",
"d 	c #F6F6F6",
"e 	c #EBECE9",
"f 	c #7EB34B",
"g 	c #6CB12C",
"h 	c #D8F4BD",
"i 	c #C6F19C",
"j 	c #99E64E",
"k 	c #C9F0A3",
"l 	c #68AF26",
"m 	c #79AE46",
"n 	c #DBDCD9",
"o 	c #DEDFDC",
"p 	c #F8F8F7",
"q 	c #F1F2F0",
"r 	c #E3E3E0",
"s 	c #E2E2DF",
"t 	c #66A727",
"u 	c #87C14F",
"v 	c #E1F7CA",
"w 	c #D3F4B2",
"x 	c #93E444",
"y 	c #C9F1A2",
"z 	c #7BBB3E",
"A 	c #65A626",
"B 	c #D9DAD6",
"C 	c #D8DAD6",
"D 	c #D8D9D5",
"E 	c #EFEFED",
"F 	c #EFF0EE",
"G 	c #E5E6E3",
"H 	c #DCDDD9",
"I 	c #D7DAD2",
"J 	c #59A114",
"K 	c #A1D272",
"L 	c #E7F9D5",
"M 	c #BAEE88",
"N 	c #C4F098",
"O 	c #8CC852",
"P 	c #59A113",
"Q 	c #D1D4CC",
"R 	c #D4D5D1",
"S 	c #D6D7D3",
"T 	c #D5D6D3",
"U 	c #EAEBE9",
"V 	c #EEEEEC",
"W 	c #DDDDDA",
"X 	c #F4F5F4",
"Y 	c #D5D7D2",
"Z 	c #C6CEBA",
"` 	c #529D0B",
" .	c #C1E49F",
"..	c #A0D66C",
"+.	c #C1CAB4",
"@.	c #CFD0CB",
"#.	c #D5D7D3",
"$.	c #DBDDD9",
"%.	c #CED0CB",
"&.	c #E3E4E2",
"*.	c #DEDEDC",
"=.	c #E6E6E4",
"-.	c #D2D4CF",
";.	c #D7D9D4",
">.	c #F2F2F1",
",.	c #E1E1DE",
"'.	c #B8C9A8",
").	c #549F0D",
"!.	c #A2D274",
"~.	c #539E0B",
"{.	c #B5C5A4",
"].	c #E3E4E1",
"^.	c #DEDFDB",
"/.	c #CACCC7",
"(.	c #C6C9C3",
"_.	c #D3D4D1",
":.	c #969792",
"<.	c #CBCDC8",
"[.	c #CBCDC7",
"}.	c #E6E7E5",
"|.	c #B7D49A",
"1.	c #B4D197",
"2.	c #EAEAE8",
"3.	c #DDDEDB",
"4.	c #CDCEC9",
"5.	c #C2C5BF",
"6.	c #C1C4BE",
"7.	c #939590",
"8.	c #D0D2CD",
"9.	c #E4E5E2",
"0.	c #C7C9C3",
"a.	c #DDDEDA",
"b.	c #C5C7C1",
"c.	c #C4C6C0",
"d.	c #C3C5BF",
"e.	c #C1C3BD",
"f.	c #C0C2BC",
"g.	c #BFC2BB",
"h.	c #BEC1BA",
"i.	c #BDC0B9",
"j.	c #BCBFB8",
"k.	c #BCBEB8",
"l.	c #BBBEB7",
"m.	c #DADCD9",
"n.	c #F5F6F5",
"o.	c #FFFFFF",
"p.	c #858884",
"q.	c #9D9F9A",
"r.	c #2E3436",
"s.	c #3D4241",
"t.	c #2F3537",
"u.	c #353A3B",
"v.	c #3B403F",
"w.	c #3F4343",
"x.	c #454747",
"y.	c #4B4D4B",
"z.	c #747672",
"A.	c #4F514E",
"B.	c #787A76",
"C.	c #434645",
"D.	c #757874",
"E.	c #424545",
"F.	c #747673",
"G.	c #3F4342",
"H.	c #424644",
"I.	c #454847",
"J.	c #464A48",
"K.	c #494C4A",
"L.	c #4C4F4C",
"M.	c #717470",
"N.	c #70726E",
"O.	c #6F726E",
"P.	c #6E716D",
"Q.	c #6E706C",
"R.	c #6D6F6C",
"S.	c #6C6F6C",
"                                            ",
"                . . . . . . .               ",
"                + @ # $ % % &               ",
"                + * % = - ; &               ",
"                + * % = - ; &               ",
"          > > > + * % = - ; & , > >         ",
"        ' ) ! ' + * % = - ; & ~ { ] ]       ",
"      ^ / . . . ( _ : = - < [ . . . } |     ",
"      1 2 3 4 5 6 7 8 = - 9 % 0 4 a b c     ",
"      d 2 e f g h i 8 = - j k l m n o }     ",
"      p q r s t u v w = x y z A B C D E     ",
"      ] F G H I J K L M N O P Q R S T U     ",
"      V W X r Y Z `  .$ ..` +.@.#.$.%.&.    ",
"    *.=.-.;.>.] ,.'.).!.~.{.D ].^./.(.n _.  ",
"    1 n :.<.[.Y }.>.|.. 1.2.3.4.5.6.7.8.9.  ",
"    p %.0.a.b.c.d.5.6.e.f.g.h.i.j.k.l.m.n.  ",
"    ) o.o.o.o.o.o.o.o.o.o.o.o.o.o.o.o.o.X   ",
"    p.> > > > > 7.7.7.> > 7.q.> 7.q.> >     ",
"    r.s.r.t.u.v.w.x.y.z.A.B.C.D.E.E.F.s.    ",
"    r.s.s.G.H.I.J.K.L.M.M.N.O.P.Q.R.S.s.r.  ",
"      r.r.r.r.r.r.r.r.r.r.r.r.r.r.r.r.r.    ",
"                                            "};
