/* XPM */
static char * fileopen_xpm[] = {
"22 22 156 2",
"  	c None",
". 	c #555753",
"+ 	c #ADAFA1",
"@ 	c #C3C5B5",
"# 	c #9A9C87",
"$ 	c #67685B",
"% 	c #8C8E7C",
"& 	c #8D8F84",
"* 	c #818373",
"= 	c #676960",
"- 	c #FFFFFF",
"; 	c #ACAEA0",
"> 	c #808272",
", 	c #EEEEEC",
"' 	c #AAAC9E",
") 	c #545652",
"! 	c #C2C4B4",
"~ 	c #7E8070",
"{ 	c #7C7E6F",
"] 	c #BEBEBC",
"^ 	c #C0C2B2",
"/ 	c #7B7C6E",
"( 	c #7A7C6C",
"_ 	c #C1C3B3",
": 	c #797B6C",
"< 	c #787A6B",
"[ 	c #757768",
"} 	c #747667",
"| 	c #717364",
"1 	c #707264",
"2 	c #F7F7F6",
"3 	c #525450",
"4 	c #535552",
"5 	c #656765",
"6 	c #A0A099",
"7 	c #D3D4C6",
"8 	c #CDCEBA",
"9 	c #C4C6B4",
"0 	c #C2C4B1",
"a 	c #C0C2AF",
"b 	c #BDC0AD",
"c 	c #BBBEAB",
"d 	c #B8BAA8",
"e 	c #B6B7A5",
"f 	c #B1B29F",
"g 	c #B9BBA9",
"h 	c #AEAFA4",
"i 	c #5B5D59",
"j 	c #CED0BD",
"k 	c #D3D4C2",
"l 	c #D4D4C2",
"m 	c #D1D3C0",
"n 	c #CFD1BE",
"o 	c #CECFBD",
"p 	c #C8C9B7",
"q 	c #C1C2AE",
"r 	c #BDBFAB",
"s 	c #B8BAA7",
"t 	c #B4B6A3",
"u 	c #B2B4A1",
"v 	c #B0B29F",
"w 	c #ADAF9C",
"x 	c #AAAC9A",
"y 	c #A5A694",
"z 	c #B4B5A4",
"A 	c #9EA095",
"B 	c #CBCDBB",
"C 	c #C5C7B2",
"D 	c #C2C4AE",
"E 	c #C1C3AE",
"F 	c #BEC1AC",
"G 	c #BBBDA9",
"H 	c #BBBCA8",
"I 	c #B9BBA7",
"J 	c #B3B4A1",
"K 	c #B0B19E",
"L 	c #AEB09D",
"M 	c #ABAE9B",
"N 	c #AAAB99",
"O 	c #A7A896",
"P 	c #A4A694",
"Q 	c #9D9F8E",
"R 	c #B1B3A2",
"S 	c #93958B",
"T 	c #CACCBA",
"U 	c #BCBEA9",
"V 	c #B9BBA6",
"W 	c #B7B9A4",
"X 	c #B6B7A2",
"Y 	c #B4B5A1",
"Z 	c #B2B4A0",
"` 	c #AFB19D",
" .	c #A9AA97",
"..	c #A5A794",
"+.	c #A3A593",
"@.	c #A1A390",
"#.	c #9FA18F",
"$.	c #9D9E8D",
"%.	c #9A9B8A",
"&.	c #939483",
"*.	c #B0B1A1",
"=.	c #787972",
"-.	c #C5C7B6",
";.	c #B1B39D",
">.	c #B1B39E",
",.	c #AFB19C",
"'.	c #ADAF9A",
").	c #ABAC98",
"!.	c #A9AB96",
"~.	c #A5A894",
"{.	c #A0A18E",
"].	c #9D9F8D",
"^.	c #9C9E8B",
"/.	c #9A9B89",
"(.	c #989987",
"_.	c #959684",
":.	c #929382",
"<.	c #8C8D7B",
"[.	c #AFB1A1",
"}.	c #6C6E68",
"|.	c #787A73",
"1.	c #C8C9BB",
"2.	c #A9AB95",
"3.	c #A8AA94",
"4.	c #A6A793",
"5.	c #A4A691",
"6.	c #A2A490",
"7.	c #A0A28E",
"8.	c #9D9F8B",
"9.	c #979986",
"0.	c #949684",
"a.	c #939583",
"b.	c #929381",
"c.	c #909180",
"d.	c #8D8E7D",
"e.	c #8B8C7A",
"f.	c #868777",
"g.	c #ADAEA1",
"h.	c #5B5D58",
"i.	c #97988E",
"j.	c #A1A392",
"k.	c #9FA090",
"l.	c #9E9F8F",
"m.	c #9C9E8E",
"n.	c #9C9D8D",
"o.	c #9B9C8D",
"p.	c #989A8B",
"q.	c #959789",
"r.	c #949688",
"s.	c #949587",
"t.	c #929386",
"u.	c #929385",
"v.	c #909284",
"w.	c #8F9083",
"x.	c #8E8F82",
"y.	c #5E605A",
"                                            ",
"    . . . . . . .                           ",
"  . + @ @ @ @ @ + .                         ",
"  . @ # # # # # @ $ . . . . . . . . .       ",
"  . @ % % % % % % + + + + + + + + + & .     ",
"  . @ * * = . . . . . . . . . . . = + .     ",
"  . @ * * . - - - - - - - - - - - . ; .     ",
"  . @ > > . - , , , , , , , , , - . ' )     ",
"  . ! ~ { . - ] ] ] ] ] ] ] ] ] - . ' )     ",
"  ) ^ / ( . - , , , , , , , , , - . ; )     ",
"  . _ : < . - ] ] ] ] ] ] ] ] ] - . ; .     ",
"  . ! [ } . - , , , , , , , , , - . ; .     ",
"  . ! | 1 . 2 . . . . . . . . . . . . . .   ",
"  3 ) ) ) 4 5 6 7 8 9 0 a b c d e f g h i   ",
"  j k l m n o p q r s e t u v w x y z A     ",
"  B C D E F r G H I J K L M N O P Q R S     ",
"  T r U V W X Y Z `  ...+.@.#.$.%.&.*.=.    ",
"  -.I ;.>.,.'.).!.~.{.].^./.(._.:.<.[.}.    ",
"  |.1.2.3.4.5.6.7.8.9.0.a.b.c.d.e.f.g.h.    ",
"    i.j.k.l.m.n.o.p.q.r.s.t.u.v.w.x.y.      ",
"    . . . . . . . . . . . . . . . . .       ",
"                                            "};
