/* XPM */
static char * zoom_fit_best_xpm[] = {
"22 22 137 2",
"  	c None",
". 	c #CDD6DD",
"+ 	c #E4E7E9",
"@ 	c #B8CCDF",
"# 	c #A3BFDC",
"$ 	c #97B8D9",
"% 	c #98B8D9",
"& 	c #A4BFDC",
"* 	c #CED7DE",
"= 	c #6388B8",
"- 	c #517DB4",
"; 	c #5982B7",
"> 	c #B4CCE5",
", 	c #B3CBE5",
"' 	c #B0CAE4",
") 	c #5782B6",
"! 	c #E1EAF5",
"~ 	c #EAF1F8",
"{ 	c #EBF1F8",
"] 	c #5D85B8",
"^ 	c #BBD1E8",
"/ 	c #B8CFE7",
"( 	c #5B84B8",
"_ 	c #E7EFF7",
": 	c #E6EEF7",
"< 	c #DFEAF4",
"[ 	c #5E86B8",
"} 	c #5F87B9",
"| 	c #C3D6EA",
"1 	c #BED3E9",
"2 	c #BAD0E7",
"3 	c #B5CDE6",
"4 	c #5983B7",
"5 	c #5882B6",
"6 	c #E4EDF6",
"7 	c #517DB3",
"8 	c #B8CBDF",
"9 	c #5A83B7",
"0 	c #C1D5EA",
"a 	c #BFD3E9",
"b 	c #B7CEE6",
"c 	c #B2CAE5",
"d 	c #ADC7E3",
"e 	c #5781B6",
"f 	c #537FB5",
"g 	c #5C84B8",
"h 	c #B9D0E7",
"i 	c #B9CFE7",
"j 	c #B7CEE7",
"k 	c #ACC7E3",
"l 	c #A8C4E1",
"m 	c #A3C1E0",
"n 	c #547FB5",
"o 	c #9ABADD",
"p 	c #A1BDDB",
"q 	c #96B7D9",
"r 	c #B0C9E4",
"s 	c #B1CAE4",
"t 	c #AFC9E4",
"u 	c #AEC7E3",
"v 	c #ABC5E2",
"w 	c #A7C3E1",
"x 	c #A2C0DF",
"y 	c #9EBDDE",
"z 	c #99BADC",
"A 	c #93B5DA",
"B 	c #8BAFD5",
"C 	c #95B6D8",
"D 	c #A6C2E0",
"E 	c #AEC8E3",
"F 	c #AFC8E4",
"G 	c #AFC8E3",
"H 	c #ACC6E3",
"I 	c #AAC5E2",
"J 	c #A6C3E1",
"K 	c #9ABADC",
"L 	c #88AED6",
"M 	c #7AA5D1",
"N 	c #87ACD3",
"O 	c #CFD7DE",
"P 	c #81A9D4",
"Q 	c #4D7AB3",
"R 	c #8EB2D8",
"S 	c #96B7DB",
"T 	c #9DBCDD",
"U 	c #9CBBDD",
"V 	c #96B8DC",
"W 	c #91B4D9",
"X 	c #8CB1D7",
"Y 	c #87ADD6",
"Z 	c #4D7AB2",
"` 	c #84ABD5",
" .	c #A5C0DD",
"..	c #CFD8DE",
"+.	c #C1D2E2",
"@.	c #4E7BB3",
"#.	c #DDE8F3",
"$.	c #507CB4",
"%.	c #93B6DA",
"&.	c #94B6DA",
"*.	c #507DB4",
"=.	c #DEE8F4",
"-.	c #4F7CB3",
";.	c #C3D3E2",
">.	c #E6E9EA",
",.	c #5580B5",
"'.	c #E0EAF4",
").	c #537EB5",
"!.	c #5680B5",
"~.	c #E7E9EA",
"{.	c #668AB8",
"].	c #E3ECF5",
"^.	c #A9C4E1",
"/.	c #E5EDF6",
"(.	c #678BB8",
"_.	c #D8DEE1",
":.	c #678BB9",
"<.	c #5C84B7",
"[.	c #B2CAE4",
"}.	c #D9DEE2",
"|.	c #E9EBEB",
"1.	c #D7E1E9",
"2.	c #CDDBEA",
"3.	c #C4D6E8",
"4.	c #C5D6E8",
"5.	c #D8E2EA",
"6.	c #A2A59F",
"7.	c #DEE1E2",
"8.	c #EAEBEB",
"9.	c #B9BCB6",
"0.	c #BDBFBC",
"a.	c #7A7B78",
"b.	c #878A84",
"c.	c #797A77",
"d.	c #B7B8B6",
"e.	c #767873",
"f.	c #A0A29F",
"                                            ",
"              . + + .                       ",
"          + @ # $ % & @ +                   ",
"      * = - ; > > , ' ) - = *               ",
"      = ! ~ { ] ^ / ( _ : < =               ",
"    + - ~ [ } | 1 2 3 4 5 6 7 +             ",
"    8 9 { [ 0 a ^ b c d e 6 f 8             ",
"  . # 3 g h i j > ' k l m n o p .           ",
"  + q r s c ' t u v w x y z A B +           ",
"  + C D E F G E H I J m K L M N +           ",
"  O & P Q R S T U V W X Y Z `  ...          ",
"    +.@.#.$.W A %.&.%.A *.=.-.;.            ",
"    >.,.'.).f T y y y n f ! !.~.            ",
"      {.].6 6 e ^.^.e /.6 6 (.              ",
"      _.:.<.4 [., , , 9 <.:.}.              ",
"          |.1.2.3.4.2.5.|.    6.            ",
"              7.8.8.7.          9.0.        ",
"                                a.b.0.      ",
"                                  c.b.0.    ",
"                                    c.b.d.  ",
"                                      e.f.  ",
"                                            "};
