/* XPM */
static char * zoom_original_xpm[] = {
"22 22 134 2",
"  	c None",
". 	c #CDD6DD",
"+ 	c #E4E7E9",
"@ 	c #B8CCDF",
"# 	c #A3BFDC",
"$ 	c #97B8D9",
"% 	c #98B8D9",
"& 	c #A4BFDC",
"* 	c #CED7DE",
"= 	c #D0DBE6",
"- 	c #95B6D9",
"; 	c #ADC7E3",
"> 	c #B4CCE5",
", 	c #B3CBE5",
"' 	c #B0CAE4",
") 	c #A9C5E2",
"! 	c #99BADC",
"~ 	c #B8CFE7",
"{ 	c #BBD1E8",
"] 	c #BCD1E8",
"^ 	c #5D85B8",
"/ 	c #5C85B8",
"( 	c #5B84B8",
"_ 	c #B0C9E4",
": 	c #ACC6E3",
"< 	c #94B7DA",
"[ 	c #BAD0E8",
"} 	c #BFD3E9",
"| 	c #C3D6EB",
"1 	c #5F87B9",
"2 	c #ECF2F8",
"3 	c #EAF1F8",
"4 	c #ABC6E2",
"5 	c #A6C2E1",
"6 	c #93B5D8",
"7 	c #B8CBDF",
"8 	c #B1CAE4",
"9 	c #BFD4E9",
"0 	c #5F86B9",
"a 	c #EBF1F8",
"b 	c #EAF0F8",
"c 	c #5A83B7",
"d 	c #A8C4E1",
"e 	c #A3C1E0",
"f 	c #9CBCDD",
"g 	c #B5CDE6",
"h 	c #B8CEE7",
"i 	c #E9F0F7",
"j 	c #E7EFF7",
"k 	c #5882B7",
"l 	c #9FBDDE",
"m 	c #9ABADD",
"n 	c #A1BDDB",
"o 	c #96B7D9",
"p 	c #B2CAE5",
"q 	c #5983B7",
"r 	c #E7EEF7",
"s 	c #E6EEF6",
"t 	c #5781B6",
"u 	c #A2C0DF",
"v 	c #9EBDDE",
"w 	c #93B5DA",
"x 	c #8BAFD5",
"y 	c #95B6D8",
"z 	c #A6C2E0",
"A 	c #AEC8E3",
"B 	c #AFC8E4",
"C 	c #AFC8E3",
"D 	c #E6EEF7",
"E 	c #5681B6",
"F 	c #9ABADC",
"G 	c #88AED6",
"H 	c #7AA5D1",
"I 	c #87ACD3",
"J 	c #CFD7DE",
"K 	c #81A9D4",
"L 	c #86ACD6",
"M 	c #8EB2D8",
"N 	c #96B7DB",
"O 	c #547FB5",
"P 	c #E1EBF5",
"Q 	c #E0EAF5",
"R 	c #507DB4",
"S 	c #8CB1D7",
"T 	c #87ADD6",
"U 	c #85ACD5",
"V 	c #84ABD5",
"W 	c #A5C0DD",
"X 	c #CFD8DE",
"Y 	c #C1D2E2",
"Z 	c #8BB0D7",
"` 	c #90B3D9",
" .	c #91B4D9",
"..	c #517DB4",
"+.	c #DFE9F4",
"@.	c #C3D3E2",
"#.	c #E6E9EA",
"$.	c #A2BEDC",
"%.	c #98B8DB",
"&.	c #9CBBDD",
"*.	c #E2EBF5",
"=.	c #9DBCDD",
"-.	c #A4C0DD",
";.	c #E7E9EA",
">.	c #DBE2E9",
",.	c #A4C1E0",
"'.	c #A8C3E1",
").	c #A9C4E1",
"!.	c #A5C1E0",
"~.	c #DCE3E9",
"{.	c #D8DEE1",
"].	c #DEE4EA",
"^.	c #B7CEE4",
"/.	c #B2CAE4",
"(.	c #B9CEE5",
"_.	c #DFE5EA",
":.	c #D9DEE2",
"<.	c #E9EBEB",
"[.	c #D7E1E9",
"}.	c #CDDBEA",
"|.	c #C4D6E8",
"1.	c #C5D6E8",
"2.	c #D8E2EA",
"3.	c #A2A59F",
"4.	c #DEE1E2",
"5.	c #EAEBEB",
"6.	c #B9BCB6",
"7.	c #BDBFBC",
"8.	c #7A7B78",
"9.	c #878A84",
"0.	c #797A77",
"a.	c #B7B8B6",
"b.	c #767873",
"c.	c #A0A29F",
"                                            ",
"              . + + .                       ",
"          + @ # $ % & @ +                   ",
"      * = - ; > > , ' ) - = *               ",
"      = ! ~ { ] ^ / ( _ : < =               ",
"    + - [ } | 1 2 3 ( _ 4 5 6 +             ",
"    7 8 ] 9 0 2 a b c ; d e f 7             ",
"  . # g h / 3 b i j k d e l m n .           ",
"  + o _ 8 p q q r s t u v ! w x +           ",
"  + y z A B C q D s E e F G H I +           ",
"  J & K L M N O P Q R S T U V W X           ",
"    Y Z M `  ...+.+...w  .` M @.            ",
"    #.$.%.F &.O *.*.O =.&.F -.;.            ",
"      >.u ,.z '.t t ).'.z !.~.              ",
"      {.].^._ /., , , /.(._.:.              ",
"          <.[.}.|.1.}.2.<.    3.            ",
"              4.5.5.4.          6.7.        ",
"                                8.9.7.      ",
"                                  0.9.7.    ",
"                                    0.9.a.  ",
"                                      b.c.  ",
"                                            "};
