/* XPM */
static char * zoom_in_xpm[] = {
"22 22 146 2",
"  	c None",
". 	c #CDD6DD",
"+ 	c #E4E7E9",
"@ 	c #B8CCDF",
"# 	c #A3BFDC",
"$ 	c #97B8D9",
"% 	c #98B8D9",
"& 	c #A4BFDC",
"* 	c #CED7DE",
"= 	c #D0DBE6",
"- 	c #95B6D9",
"; 	c #ADC7E3",
"> 	c #B4CCE5",
", 	c #B3CBE5",
"' 	c #B0CAE4",
") 	c #A9C5E2",
"! 	c #99BADC",
"~ 	c #B8CFE7",
"{ 	c #BBD1E8",
"] 	c #9AB6D7",
"^ 	c #668DBD",
"/ 	c #658DBD",
"( 	c #94B2D6",
"_ 	c #B0C9E4",
": 	c #ACC6E3",
"< 	c #94B7DA",
"[ 	c #BAD0E8",
"} 	c #BFD3E9",
"| 	c #C3D6EB",
"1 	c #698FBE",
"2 	c #ECF2F8",
"3 	c #EAF1F8",
"4 	c #648CBD",
"5 	c #ABC6E2",
"6 	c #A6C2E1",
"7 	c #93B5D8",
"8 	c #B8CBDF",
"9 	c #B1CAE4",
"0 	c #BCD1E8",
"a 	c #BFD4E9",
"b 	c #C1D5EA",
"c 	c #5E86B8",
"d 	c #EBF1F8",
"e 	c #EAF0F8",
"f 	c #5A83B7",
"g 	c #A8C4E1",
"h 	c #A3C1E0",
"i 	c #9CBCDD",
"j 	c #B5CDE6",
"k 	c #97B4D6",
"l 	c #5C85B8",
"m 	c #5C84B8",
"n 	c #E9F0F7",
"o 	c #E7EFF7",
"p 	c #5882B7",
"q 	c #5781B6",
"r 	c #5E88BB",
"s 	c #84A7D0",
"t 	c #9ABADD",
"u 	c #A1BDDB",
"v 	c #96B7D9",
"w 	c #638BBC",
"x 	c #E8EFF7",
"y 	c #E7EEF7",
"z 	c #E6EEF6",
"A 	c #E5EDF6",
"B 	c #E3ECF5",
"C 	c #E2EBF5",
"D 	c #5B86B9",
"E 	c #93B5DA",
"F 	c #8BAFD5",
"G 	c #95B6D8",
"H 	c #A6C2E0",
"I 	c #628ABC",
"J 	c #E6EEF7",
"K 	c #E4EDF6",
"L 	c #E1EAF5",
"M 	c #5582B7",
"N 	c #7AA5D1",
"O 	c #87ACD3",
"P 	c #CFD7DE",
"Q 	c #81A9D4",
"R 	c #729BCA",
"S 	c #5783B8",
"T 	c #527EB4",
"U 	c #547FB5",
"V 	c #E1EBF5",
"W 	c #E0EAF5",
"X 	c #507DB4",
"Y 	c #4F7CB3",
"Z 	c #5581B7",
"` 	c #719BC9",
" .	c #84ABD5",
"..	c #A5C0DD",
"+.	c #CFD8DE",
"@.	c #C1D2E2",
"#.	c #8BB0D7",
"$.	c #8EB2D8",
"%.	c #90B3D9",
"&.	c #91B4D9",
"*.	c #517DB4",
"=.	c #DFE9F4",
"-.	c #C3D3E2",
";.	c #E6E9EA",
">.	c #A2BEDC",
",.	c #98B8DB",
"'.	c #9ABADC",
").	c #9CBBDD",
"!.	c #5C86BA",
"~.	c #5C87BA",
"{.	c #9DBCDD",
"].	c #A4C0DD",
"^.	c #E7E9EA",
"/.	c #DBE2E9",
"(.	c #A2C0DF",
"_.	c #A4C1E0",
":.	c #8BACD2",
"<.	c #6089BB",
"[.	c #8CADD2",
"}.	c #A8C3E1",
"|.	c #A5C1E0",
"1.	c #DCE3E9",
"2.	c #D8DEE1",
"3.	c #DEE4EA",
"4.	c #B7CEE4",
"5.	c #B2CAE4",
"6.	c #B9CEE5",
"7.	c #DFE5EA",
"8.	c #D9DEE2",
"9.	c #E9EBEB",
"0.	c #D7E1E9",
"a.	c #CDDBEA",
"b.	c #C4D6E8",
"c.	c #C5D6E8",
"d.	c #D8E2EA",
"e.	c #A2A59F",
"f.	c #DEE1E2",
"g.	c #EAEBEB",
"h.	c #B9BCB6",
"i.	c #BDBFBC",
"j.	c #7A7B78",
"k.	c #878A84",
"l.	c #797A77",
"m.	c #B7B8B6",
"n.	c #767873",
"o.	c #A0A29F",
"                                            ",
"              . + + .                       ",
"          + @ # $ % & @ +                   ",
"      * = - ; > > , ' ) - = *               ",
"      = ! ~ { ] ^ / ( _ : < =               ",
"    + - [ } | 1 2 3 4 _ 5 6 7 +             ",
"    8 9 0 a b c d e f ; g h i 8             ",
"  . # j k / l m n o p q r s t u .           ",
"  + v _ w x o o y z A B C D E F +           ",
"  + G H I o o o J z K K L M N O +           ",
"  P & Q R S T U V W X Y Z `  ...+.          ",
"    @.#.$.%.&.*.=.=.*.E &.%.$.-.            ",
"    ;.>.,.'.).!.C C ~.{.).'.].^.            ",
"      /.(._.H :.<.<.[.}.H |.1.              ",
"      2.3.4._ 5., , , 5.6.7.8.              ",
"          9.0.a.b.c.a.d.9.    e.            ",
"              f.g.g.f.          h.i.        ",
"                                j.k.i.      ",
"                                  l.k.i.    ",
"                                    l.k.m.  ",
"                                      n.o.  ",
"                                            "};
