/* XPM */
static char * zoom_out_xpm[] = {
"22 22 139 2",
"  	c None",
". 	c #CDD6DD",
"+ 	c #E4E7E9",
"@ 	c #B8CCDF",
"# 	c #A3BFDC",
"$ 	c #97B8D9",
"% 	c #98B8D9",
"& 	c #A4BFDC",
"* 	c #CED7DE",
"= 	c #D0DBE6",
"- 	c #95B6D9",
"; 	c #ADC7E3",
"> 	c #B4CCE5",
", 	c #B3CBE5",
"' 	c #B0CAE4",
") 	c #A9C5E2",
"! 	c #99BADC",
"~ 	c #B8CFE7",
"{ 	c #BBD1E8",
"] 	c #BCD1E8",
"^ 	c #B4CCE6",
"/ 	c #B0C9E4",
"( 	c #ACC6E3",
"_ 	c #94B7DA",
": 	c #BAD0E8",
"< 	c #BFD3E9",
"[ 	c #C3D6EB",
"} 	c #C3D6EA",
"| 	c #BED3E9",
"1 	c #BAD0E7",
"2 	c #B5CDE6",
"3 	c #ABC6E2",
"4 	c #A6C2E1",
"5 	c #93B5D8",
"6 	c #B8CBDF",
"7 	c #B1CAE4",
"8 	c #BFD4E9",
"9 	c #C1D5EA",
"0 	c #B7CEE6",
"a 	c #B2CAE5",
"b 	c #A8C4E1",
"c 	c #A3C1E0",
"d 	c #9CBCDD",
"e 	c #97B4D6",
"f 	c #658DBD",
"g 	c #5C85B8",
"h 	c #5C84B8",
"i 	c #5B84B7",
"j 	c #5983B7",
"k 	c #5882B7",
"l 	c #5781B6",
"m 	c #5E88BB",
"n 	c #84A7D0",
"o 	c #9ABADD",
"p 	c #A1BDDB",
"q 	c #96B7D9",
"r 	c #638BBC",
"s 	c #E8EFF7",
"t 	c #E7EFF7",
"u 	c #E7EEF7",
"v 	c #E6EEF6",
"w 	c #E5EDF6",
"x 	c #E3ECF5",
"y 	c #E2EBF5",
"z 	c #5B86B9",
"A 	c #93B5DA",
"B 	c #8BAFD5",
"C 	c #95B6D8",
"D 	c #A6C2E0",
"E 	c #628ABC",
"F 	c #E6EEF7",
"G 	c #E4EDF6",
"H 	c #E1EAF5",
"I 	c #5582B7",
"J 	c #7AA5D1",
"K 	c #87ACD3",
"L 	c #CFD7DE",
"M 	c #81A9D4",
"N 	c #729BCA",
"O 	c #5783B8",
"P 	c #527EB4",
"Q 	c #547FB5",
"R 	c #537FB5",
"S 	c #527EB5",
"T 	c #507DB4",
"U 	c #4F7CB3",
"V 	c #5581B7",
"W 	c #719BC9",
"X 	c #84ABD5",
"Y 	c #A5C0DD",
"Z 	c #CFD8DE",
"` 	c #C1D2E2",
" .	c #8BB0D7",
"..	c #8EB2D8",
"+.	c #90B3D9",
"@.	c #91B4D9",
"#.	c #93B6DA",
"$.	c #94B6DA",
"%.	c #C3D3E2",
"&.	c #E6E9EA",
"*.	c #A2BEDC",
"=.	c #98B8DB",
"-.	c #9ABADC",
";.	c #9CBBDD",
">.	c #9DBCDD",
",.	c #9EBDDE",
"'.	c #A4C0DD",
").	c #E7E9EA",
"!.	c #DBE2E9",
"~.	c #A2C0DF",
"{.	c #A4C1E0",
"].	c #A8C3E1",
"^.	c #A9C4E1",
"/.	c #A5C1E0",
"(.	c #DCE3E9",
"_.	c #D8DEE1",
":.	c #DEE4EA",
"<.	c #B7CEE4",
"[.	c #B2CAE4",
"}.	c #B9CEE5",
"|.	c #DFE5EA",
"1.	c #D9DEE2",
"2.	c #E9EBEB",
"3.	c #D7E1E9",
"4.	c #CDDBEA",
"5.	c #C4D6E8",
"6.	c #C5D6E8",
"7.	c #D8E2EA",
"8.	c #A2A59F",
"9.	c #DEE1E2",
"0.	c #EAEBEB",
"a.	c #B9BCB6",
"b.	c #BDBFBC",
"c.	c #7A7B78",
"d.	c #878A84",
"e.	c #797A77",
"f.	c #B7B8B6",
"g.	c #767873",
"h.	c #A0A29F",
"                                            ",
"              . + + .                       ",
"          + @ # $ % & @ +                   ",
"      * = - ; > > , ' ) - = *               ",
"      = ! ~ { ] { ~ ^ / ( _ =               ",
"    + - : < [ } | 1 2 / 3 4 5 +             ",
"    6 7 ] 8 9 < { 0 a ; b c d 6             ",
"  . # 2 e f g h i j k l m n o p .           ",
"  + q / r s t t u v w x y z A B +           ",
"  + C D E t t t F v G G H I J K +           ",
"  L & M N O P Q R S T U V W X Y Z           ",
"    `  ...+.@.A #.$.#.A @.+...%.            ",
"    &.*.=.-.;.>.,.,.,.>.;.-.'.).            ",
"      !.~.{.D ].^.^.^.].D /.(.              ",
"      _.:.<./ [., , , [.}.|.1.              ",
"          2.3.4.5.6.4.7.2.    8.            ",
"              9.0.0.9.          a.b.        ",
"                                c.d.b.      ",
"                                  e.d.b.    ",
"                                    e.d.f.  ",
"                                      g.h.  ",
"                                            "};
